<?xml version="1.0" encoding="utf-8"?>
<!-- Generated by Mocodo 4.2.8 -->
<svg width="833" height="389" viewBox="0 0 833 389" xmlns="http://www.w3.org/2000/svg">
<rect x="0" y="0" width="833" height="389" fill="#f7f7f7" stroke="none" stroke-width="0"/>

<!-- Association MODIFIER -->
<g>
	<line x1="622" y1="144" x2="482" y2="43" stroke="#8073ac" stroke-width="2"/>
	<line x1="340" y1="144" x2="482" y2="43" stroke="#8073ac" stroke-width="2"/>
	<g>
		<path d="M530 18 a14 14 90 0 1 14 14 V43 h-124 V32 a14 14 90 0 1 14 -14" fill="#b2abd2" stroke="#b2abd2" stroke-width="0"/>
		<path d="M544 43 v11 a14 14 90 0 1 -14 14 H434 a14 14 90 0 1 -14 -14 V43 H124" fill="#d8daeb" stroke="#d8daeb" stroke-width="0"/>
		<rect x="420" y="18" width="124" height="50" fill="none" rx="14" stroke="#8073ac" stroke-width="2"/>
		<line x1="420" y1="43" x2="544" y2="43" stroke="#8073ac" stroke-width="1"/>
		<text x="451" y="35.75" fill="#000000" font-family="Verdana" font-size="12">MODIFIER</text>
		<text x="427" y="60.8" fill="#000000" font-family="Verdana" font-size="12">date_modification</text>
	</g>
	<text x="563" y="132.44" fill="#b35806" font-family="Verdana" font-size="12">0,N</text>
	<text x="394" y="120.74" fill="#b35806" font-family="Verdana" font-size="12">1,1</text>
</g>

<!-- Association APPARTENIR -->
<g>
	<line x1="622" y1="144" x2="622" y2="43" stroke="#8073ac" stroke-width="2"/>
	<line x1="762" y1="43" x2="622" y2="43" stroke="#8073ac" stroke-width="2"/>
	<g>
		<path d="M654 18 a14 14 90 0 1 14 14 V43 h-92 V32 a14 14 90 0 1 14 -14" fill="#b2abd2" stroke="#b2abd2" stroke-width="0"/>
		<path d="M668 43 v11 a14 14 90 0 1 -14 14 H590 a14 14 90 0 1 -14 -14 V43 H92" fill="#d8daeb" stroke="#d8daeb" stroke-width="0"/>
		<rect x="576" y="18" width="92" height="50" fill="none" rx="14" stroke="#8073ac" stroke-width="2"/>
		<line x1="576" y1="43" x2="668" y2="43" stroke="#8073ac" stroke-width="1"/>
		<text x="583" y="35.75" fill="#000000" font-family="Verdana" font-size="12">APPARTENIR</text>
	</g>
	<text x="627" y="85" fill="#b35806" font-family="Verdana" font-size="12">1,1</text>
	<text x="673" y="60" fill="#b35806" font-family="Verdana" font-size="12">1,N</text>
</g>

<!-- Association CONTENIR -->
<g>
	<path d="M219 245 C176.33 194 176.33 160.33 219 144" fill="none" stroke="#8073ac" stroke-width="2"/>
	<path d="M219 245 C260.33 194 260.33 160.33 219 144" fill="none" stroke="#8073ac" stroke-width="2"/>
	<g>
		<path d="M245 119 a14 14 90 0 1 14 14 V144 h-80 V133 a14 14 90 0 1 14 -14" fill="#b2abd2" stroke="#b2abd2" stroke-width="0"/>
		<path d="M259 144 v11 a14 14 90 0 1 -14 14 H193 a14 14 90 0 1 -14 -14 V144 H80" fill="#d8daeb" stroke="#d8daeb" stroke-width="0"/>
		<rect x="179" y="119" width="80" height="50" fill="none" rx="14" stroke="#8073ac" stroke-width="2"/>
		<line x1="179" y1="144" x2="259" y2="144" stroke="#8073ac" stroke-width="1"/>
		<text x="187" y="136.75" fill="#000000" font-family="Verdana" font-size="12">CONTENIR</text>
	</g>
	<text x="194" y="186" fill="#b35806" font-family="Verdana" font-size="12">1,N</text>
	<text x="222" y="186" fill="#b35806" font-family="Verdana" font-size="12">1,1</text>
</g>

<!-- Association SUPPRIMER -->
<g>
	<line x1="622" y1="144" x2="482" y2="144" stroke="#8073ac" stroke-width="2"/>
	<line x1="340" y1="144" x2="482" y2="144" stroke="#8073ac" stroke-width="2"/>
	<g>
		<path d="M529 119 a14 14 90 0 1 14 14 V144 h-122 V133 a14 14 90 0 1 14 -14" fill="#b2abd2" stroke="#b2abd2" stroke-width="0"/>
		<path d="M543 144 v11 a14 14 90 0 1 -14 14 H435 a14 14 90 0 1 -14 -14 V144 H122" fill="#d8daeb" stroke="#d8daeb" stroke-width="0"/>
		<rect x="421" y="119" width="122" height="50" fill="none" rx="14" stroke="#8073ac" stroke-width="2"/>
		<line x1="421" y1="144" x2="543" y2="144" stroke="#8073ac" stroke-width="1"/>
		<text x="446" y="136.75" fill="#000000" font-family="Verdana" font-size="12">SUPPRIMER</text>
		<text x="428" y="161.8" fill="#000000" font-family="Verdana" font-size="12">date_suppression</text>
	</g>
	<text x="563" y="161" fill="#b35806" font-family="Verdana" font-size="12">0,N</text>
	<text x="394" y="161" fill="#b35806" font-family="Verdana" font-size="12">1,1</text>
</g>

<!-- Association CONCERNER -->
<g>
	<line x1="340" y1="144" x2="340" y2="245" stroke="#8073ac" stroke-width="2"/>
	<line x1="219" y1="245" x2="340" y2="245" stroke="#8073ac" stroke-width="2"/>
	<g>
		<path d="M372 220 a14 14 90 0 1 14 14 V245 h-92 V234 a14 14 90 0 1 14 -14" fill="#b2abd2" stroke="#b2abd2" stroke-width="0"/>
		<path d="M386 245 v11 a14 14 90 0 1 -14 14 H308 a14 14 90 0 1 -14 -14 V245 H92" fill="#d8daeb" stroke="#d8daeb" stroke-width="0"/>
		<rect x="294" y="220" width="92" height="50" fill="none" rx="14" stroke="#8073ac" stroke-width="2"/>
		<line x1="294" y1="245" x2="386" y2="245" stroke="#8073ac" stroke-width="1"/>
		<text x="302" y="237.75" fill="#000000" font-family="Verdana" font-size="12">CONCERNER</text>
	</g>
	<text x="314" y="212" fill="#b35806" font-family="Verdana" font-size="12">1,1</text>
	<text x="258" y="262" fill="#b35806" font-family="Verdana" font-size="12">0,N</text>
</g>

<!-- Association CONSULTER -->
<g>
	<line x1="622" y1="144" x2="482" y2="245" stroke="#8073ac" stroke-width="2"/>
	<line x1="340" y1="144" x2="482" y2="245" stroke="#8073ac" stroke-width="2"/>
	<g>
		<path d="M529 220 a14 14 90 0 1 14 14 V245 h-122 V234 a14 14 90 0 1 14 -14" fill="#b2abd2" stroke="#b2abd2" stroke-width="0"/>
		<path d="M543 245 v11 a14 14 90 0 1 -14 14 H435 a14 14 90 0 1 -14 -14 V245 H122" fill="#d8daeb" stroke="#d8daeb" stroke-width="0"/>
		<rect x="421" y="220" width="122" height="50" fill="none" rx="14" stroke="#8073ac" stroke-width="2"/>
		<line x1="421" y1="245" x2="543" y2="245" stroke="#8073ac" stroke-width="1"/>
		<text x="445" y="237.75" fill="#000000" font-family="Verdana" font-size="12">CONSULTER</text>
		<text x="428" y="262.8" fill="#000000" font-family="Verdana" font-size="12">date_consultation</text>
	</g>
	<text x="563" y="164.56" fill="#b35806" font-family="Verdana" font-size="12">0,N</text>
	<text x="394" y="176.26" fill="#b35806" font-family="Verdana" font-size="12">0,N</text>
</g>

<!-- Association POSSEDER -->
<g>
	<line x1="622" y1="144" x2="622" y2="245" stroke="#8073ac" stroke-width="2"/>
	<line x1="762" y1="245" x2="622" y2="245" stroke="#8073ac" stroke-width="2"/>
	<g>
		<path d="M649 220 a14 14 90 0 1 14 14 V245 h-82 V234 a14 14 90 0 1 14 -14" fill="#b2abd2" stroke="#b2abd2" stroke-width="0"/>
		<path d="M663 245 v11 a14 14 90 0 1 -14 14 H595 a14 14 90 0 1 -14 -14 V245 H82" fill="#d8daeb" stroke="#d8daeb" stroke-width="0"/>
		<rect x="581" y="220" width="82" height="50" fill="none" rx="14" stroke="#8073ac" stroke-width="2"/>
		<line x1="581" y1="245" x2="663" y2="245" stroke="#8073ac" stroke-width="1"/>
		<text x="589" y="237.75" fill="#000000" font-family="Verdana" font-size="12">POSSEDER</text>
	</g>
	<text x="627" y="212" fill="#b35806" font-family="Verdana" font-size="12">1,4</text>
	<text x="695" y="262" fill="#b35806" font-family="Verdana" font-size="12">0,N</text>
</g>

<!-- Association ATTRIBUER -->
<g>
	<line x1="219" y1="245" x2="219" y2="346" stroke="#8073ac" stroke-width="2"/>
	<line x1="77" y1="346" x2="219" y2="346" stroke="#8073ac" stroke-width="2"/>
	<g>
		<path d="M247 321 a14 14 90 0 1 14 14 V346 h-84 V335 a14 14 90 0 1 14 -14" fill="#b2abd2" stroke="#b2abd2" stroke-width="0"/>
		<path d="M261 346 v11 a14 14 90 0 1 -14 14 H191 a14 14 90 0 1 -14 -14 V346 H84" fill="#d8daeb" stroke="#d8daeb" stroke-width="0"/>
		<rect x="177" y="321" width="84" height="50" fill="none" rx="14" stroke="#8073ac" stroke-width="2"/>
		<line x1="177" y1="346" x2="261" y2="346" stroke="#8073ac" stroke-width="1"/>
		<text x="184" y="338.75" fill="#000000" font-family="Verdana" font-size="12">ATTRIBUER</text>
		<text x="184" y="363.8" fill="#000000" font-family="Verdana" font-size="12">effectif</text>
	</g>
	<text x="224" y="313" fill="#b35806" font-family="Verdana" font-size="12">1,N</text>
	<text x="150" y="363" fill="#b35806" font-family="Verdana" font-size="12">0,N</text>
</g>

<!-- Association EFFECTUER -->
<g>
	<line x1="622" y1="144" x2="482" y2="346" stroke="#8073ac" stroke-width="2"/>
	<line x1="340" y1="144" x2="482" y2="346" stroke="#8073ac" stroke-width="2"/>
	<g>
		<path d="M529 321 a14 14 90 0 1 14 14 V346 h-122 V335 a14 14 90 0 1 14 -14" fill="#b2abd2" stroke="#b2abd2" stroke-width="0"/>
		<path d="M543 346 v11 a14 14 90 0 1 -14 14 H435 a14 14 90 0 1 -14 -14 V346 H122" fill="#d8daeb" stroke="#d8daeb" stroke-width="0"/>
		<rect x="421" y="321" width="122" height="50" fill="none" rx="14" stroke="#8073ac" stroke-width="2"/>
		<line x1="421" y1="346" x2="543" y2="346" stroke="#8073ac" stroke-width="1"/>
		<text x="447" y="338.75" fill="#000000" font-family="Verdana" font-size="12">EFFECTUER</text>
		<text x="428" y="363.8" fill="#000000" font-family="Verdana" font-size="12">date_effectuation</text>
	</g>
	<text x="563" y="187.46" fill="#b35806" font-family="Verdana" font-size="12">0,N</text>
	<text x="355.2" y="212" fill="#b35806" font-family="Verdana" font-size="12">1,1</text>
</g>

<!-- Entity DEPARTEMENT -->
<g>
	<g>
		<rect x="700" y="9" width="124" height="25" fill="#fdb863" stroke="none" stroke-width="0" opacity="1"/>
		<rect x="700" y="34" width="124" height="43" fill="#fee0b6" stroke="none" stroke-width="0" opacity="1"/>
		<rect x="700" y="9" width="124" height="68" fill="none" stroke="#e08214" stroke-width="2" opacity="1"/>
		<line x1="700" y1="34" x2="824" y2="34" stroke="#e08214" stroke-width="1"/>
	</g>
	<text x="717" y="26.75" fill="#000000" font-family="Verdana" font-size="12">DÉPARTEMENT</text>
	<text x="705" y="51.8" fill="#000000" font-family="Verdana" font-size="12">id_département</text>
	<line x1="705" y1="54" x2="802" y2="54" stroke="#000000" stroke-width="1"/>
	<text x="705" y="68.8" fill="#000000" font-family="Verdana" font-size="12">nom_département</text>
</g>

<!-- Entity RESERVATION -->
<g>
	<g>
		<rect x="291" y="93" width="98" height="25" fill="#fdb863" stroke="none" stroke-width="0" opacity="1"/>
		<rect x="291" y="118" width="98" height="77" fill="#fee0b6" stroke="none" stroke-width="0" opacity="1"/>
		<rect x="291" y="93" width="98" height="102" fill="none" stroke="#e08214" stroke-width="2" opacity="1"/>
		<line x1="291" y1="118" x2="389" y2="118" stroke="#e08214" stroke-width="1"/>
	</g>
	<text x="296" y="110.75" fill="#000000" font-family="Verdana" font-size="12">RÉSERVATION</text>
	<text x="296" y="135.8" fill="#000000" font-family="Verdana" font-size="12">id_réservation</text>
	<line x1="296" y1="138" x2="383" y2="138" stroke="#000000" stroke-width="1"/>
	<text x="296" y="152.8" fill="#000000" font-family="Verdana" font-size="12">date_début</text>
	<text x="296" y="169.8" fill="#000000" font-family="Verdana" font-size="12">date_fin</text>
	<text x="296" y="186.8" fill="#000000" font-family="Verdana" font-size="12">description</text>
</g>

<!-- Entity MEMBRE -->
<g>
	<g>
		<rect x="590" y="93" width="64" height="25" fill="#fdb863" stroke="none" stroke-width="0" opacity="1"/>
		<rect x="590" y="118" width="64" height="77" fill="#fee0b6" stroke="none" stroke-width="0" opacity="1"/>
		<rect x="590" y="93" width="64" height="102" fill="none" stroke="#e08214" stroke-width="2" opacity="1"/>
		<line x1="590" y1="118" x2="654" y2="118" stroke="#e08214" stroke-width="1"/>
	</g>
	<text x="596" y="110.75" fill="#000000" font-family="Verdana" font-size="12">MEMBRE</text>
	<text x="595" y="135.8" fill="#000000" font-family="Verdana" font-size="12">cip</text>
	<line x1="595" y1="138" x2="613" y2="138" stroke="#000000" stroke-width="1"/>
	<text x="595" y="152.8" fill="#000000" font-family="Verdana" font-size="12">nom</text>
	<text x="595" y="169.8" fill="#000000" font-family="Verdana" font-size="12">prénom</text>
	<text x="595" y="186.8" fill="#000000" font-family="Verdana" font-size="12">émail</text>
</g>

<!-- Entity LOCAL -->
<g>
	<g>
		<rect x="185" y="194" width="68" height="25" fill="#fdb863" stroke="none" stroke-width="0" opacity="1"/>
		<rect x="185" y="219" width="68" height="77" fill="#fee0b6" stroke="none" stroke-width="0" opacity="1"/>
		<rect x="185" y="194" width="68" height="102" fill="none" stroke="#e08214" stroke-width="2" opacity="1"/>
		<line x1="185" y1="219" x2="253" y2="219" stroke="#e08214" stroke-width="1"/>
	</g>
	<text x="199" y="211.75" fill="#000000" font-family="Verdana" font-size="12">LOCAL</text>
	<text x="190" y="236.8" fill="#000000" font-family="Verdana" font-size="12">pavillon</text>
	<line x1="190" y1="239" x2="238" y2="239" stroke="#000000" stroke-width="1"/>
	<text x="190" y="253.8" fill="#000000" font-family="Verdana" font-size="12">numéro</text>
	<line x1="190" y1="256" x2="237" y2="256" stroke="#000000" stroke-width="1"/>
	<text x="190" y="270.8" fill="#000000" font-family="Verdana" font-size="12">catégorie</text>
	<text x="190" y="287.8" fill="#000000" font-family="Verdana" font-size="12">capacité</text>
</g>

<!-- Entity STATUT -->
<g>
	<g>
		<rect x="722" y="211" width="80" height="25" fill="#fdb863" stroke="none" stroke-width="0" opacity="1"/>
		<rect x="722" y="236" width="80" height="43" fill="#fee0b6" stroke="none" stroke-width="0" opacity="1"/>
		<rect x="722" y="211" width="80" height="68" fill="none" stroke="#e08214" stroke-width="2" opacity="1"/>
		<line x1="722" y1="236" x2="802" y2="236" stroke="#e08214" stroke-width="1"/>
	</g>
	<text x="738" y="228.75" fill="#000000" font-family="Verdana" font-size="12">STATUT</text>
	<text x="727" y="253.8" fill="#000000" font-family="Verdana" font-size="12">id_statut</text>
	<line x1="727" y1="256" x2="782" y2="256" stroke="#000000" stroke-width="1"/>
	<text x="727" y="270.8" fill="#000000" font-family="Verdana" font-size="12">nom_statut</text>
</g>

<!-- Entity CARACTERISTIQUE -->
<g>
	<g>
		<rect x="9" y="312" width="136" height="25" fill="#fdb863" stroke="none" stroke-width="0" opacity="1"/>
		<rect x="9" y="337" width="136" height="43" fill="#fee0b6" stroke="none" stroke-width="0" opacity="1"/>
		<rect x="9" y="312" width="136" height="68" fill="none" stroke="#e08214" stroke-width="2" opacity="1"/>
		<line x1="9" y1="337" x2="145" y2="337" stroke="#e08214" stroke-width="1"/>
	</g>
	<text x="19" y="329.75" fill="#000000" font-family="Verdana" font-size="12">CARACTÉRISTIQUE</text>
	<text x="14" y="354.8" fill="#000000" font-family="Verdana" font-size="12">code_caractéristique</text>
	<line x1="14" y1="357" x2="140" y2="357" stroke="#000000" stroke-width="1"/>
	<text x="14" y="371.8" fill="#000000" font-family="Verdana" font-size="12">nom_caractéristique</text>
</g>
</svg>