<?xml version="1.0" encoding="utf-8"?>
<!-- Generated by Mocodo 4.2.8 -->
<svg width="824" height="413" viewBox="0 0 824 413" xmlns="http://www.w3.org/2000/svg">
<rect x="0" y="0" width="824" height="413" fill="#f7f7f7" stroke="none" stroke-width="0"/>

<!-- Association CONTENIR -->
<g>
	<path d="M80 68 C148.33 34.67 196 34.67 223 68" fill="none" stroke="#8073ac" stroke-width="2"/>
	<path d="M80 68 C147.67 101.33 195.33 101.33 223 68" fill="none" stroke="#8073ac" stroke-width="2"/>
	<g>
		<path d="M249 43 a14 14 90 0 1 14 14 V68 h-80 V57 a14 14 90 0 1 14 -14" fill="#b2abd2" stroke="#b2abd2" stroke-width="0"/>
		<path d="M263 68 v11 a14 14 90 0 1 -14 14 H197 a14 14 90 0 1 -14 -14 V68 H80" fill="#d8daeb" stroke="#d8daeb" stroke-width="0"/>
		<rect x="183" y="43" width="80" height="50" fill="none" rx="14" stroke="#8073ac" stroke-width="2"/>
		<line x1="183" y1="68" x2="263" y2="68" stroke="#8073ac" stroke-width="1"/>
		<text x="191" y="60.75" fill="#000000" font-family="Verdana" font-size="12">CONTENIR</text>
	</g>
	<text x="156" y="61" fill="#b35806" font-family="Verdana" font-size="12">1,N</text>
	<text x="156" y="84" fill="#b35806" font-family="Verdana" font-size="12">1,1</text>
</g>

<!-- Association CONSULTER -->
<g>
	<line x1="500" y1="203" x2="500" y2="68" stroke="#8073ac" stroke-width="2"/>
	<line x1="223" y1="203" x2="500" y2="68" stroke="#8073ac" stroke-width="2"/>
	<g>
		<path d="M547 43 a14 14 90 0 1 14 14 V68 h-122 V57 a14 14 90 0 1 14 -14" fill="#b2abd2" stroke="#b2abd2" stroke-width="0"/>
		<path d="M561 68 v11 a14 14 90 0 1 -14 14 H453 a14 14 90 0 1 -14 -14 V68 H122" fill="#d8daeb" stroke="#d8daeb" stroke-width="0"/>
		<rect x="439" y="43" width="122" height="50" fill="none" rx="14" stroke="#8073ac" stroke-width="2"/>
		<line x1="439" y1="68" x2="561" y2="68" stroke="#8073ac" stroke-width="1"/>
		<text x="463" y="60.75" fill="#000000" font-family="Verdana" font-size="12">CONSULTER</text>
		<text x="446" y="85.8" fill="#000000" font-family="Verdana" font-size="12">date_consultation</text>
	</g>
	<text x="505" y="144" fill="#b35806" font-family="Verdana" font-size="12">0,N</text>
	<text x="277" y="192.31" fill="#b35806" font-family="Verdana" font-size="12">0,N</text>
</g>

<!-- Association CONCERNER -->
<g>
	<line x1="223" y1="203" x2="80" y2="203" stroke="#8073ac" stroke-width="2"/>
	<line x1="80" y1="68" x2="80" y2="203" stroke="#8073ac" stroke-width="2"/>
	<g>
		<path d="M112 178 a14 14 90 0 1 14 14 V203 h-92 V192 a14 14 90 0 1 14 -14" fill="#b2abd2" stroke="#b2abd2" stroke-width="0"/>
		<path d="M126 203 v11 a14 14 90 0 1 -14 14 H48 a14 14 90 0 1 -14 -14 V203 H92" fill="#d8daeb" stroke="#d8daeb" stroke-width="0"/>
		<rect x="34" y="178" width="92" height="50" fill="none" rx="14" stroke="#8073ac" stroke-width="2"/>
		<line x1="34" y1="203" x2="126" y2="203" stroke="#8073ac" stroke-width="1"/>
		<text x="42" y="195.75" fill="#000000" font-family="Verdana" font-size="12">CONCERNER</text>
	</g>
	<text x="148" y="220" fill="#b35806" font-family="Verdana" font-size="12">1,1</text>
	<text x="85" y="144" fill="#b35806" font-family="Verdana" font-size="12">0,N</text>
</g>

<!-- Association SUPPRIMER -->
<g>
	<line x1="500" y1="203" x2="365" y2="203" stroke="#8073ac" stroke-width="2"/>
	<line x1="223" y1="203" x2="365" y2="203" stroke="#8073ac" stroke-width="2"/>
	<g>
		<path d="M412 178 a14 14 90 0 1 14 14 V203 h-122 V192 a14 14 90 0 1 14 -14" fill="#b2abd2" stroke="#b2abd2" stroke-width="0"/>
		<path d="M426 203 v11 a14 14 90 0 1 -14 14 H318 a14 14 90 0 1 -14 -14 V203 H122" fill="#d8daeb" stroke="#d8daeb" stroke-width="0"/>
		<rect x="304" y="178" width="122" height="50" fill="none" rx="14" stroke="#8073ac" stroke-width="2"/>
		<line x1="304" y1="203" x2="426" y2="203" stroke="#8073ac" stroke-width="1"/>
		<text x="329" y="195.75" fill="#000000" font-family="Verdana" font-size="12">SUPPRIMER</text>
		<text x="311" y="220.8" fill="#000000" font-family="Verdana" font-size="12">date_suppression</text>
	</g>
	<text x="441" y="195" fill="#b35806" font-family="Verdana" font-size="12">0,N</text>
	<text x="277" y="220" fill="#b35806" font-family="Verdana" font-size="12">1,1</text>
</g>

<!-- Association APPARTENIR -->
<g>
	<line x1="500" y1="203" x2="613" y2="203" stroke="#8073ac" stroke-width="2"/>
	<line x1="753" y1="203" x2="613" y2="203" stroke="#8073ac" stroke-width="2"/>
	<g>
		<path d="M645 178 a14 14 90 0 1 14 14 V203 h-92 V192 a14 14 90 0 1 14 -14" fill="#b2abd2" stroke="#b2abd2" stroke-width="0"/>
		<path d="M659 203 v11 a14 14 90 0 1 -14 14 H581 a14 14 90 0 1 -14 -14 V203 H92" fill="#d8daeb" stroke="#d8daeb" stroke-width="0"/>
		<rect x="567" y="178" width="92" height="50" fill="none" rx="14" stroke="#8073ac" stroke-width="2"/>
		<line x1="567" y1="203" x2="659" y2="203" stroke="#8073ac" stroke-width="1"/>
		<text x="574" y="195.75" fill="#000000" font-family="Verdana" font-size="12">APPARTENIR</text>
	</g>
	<text x="537" y="220" fill="#b35806" font-family="Verdana" font-size="12">1,1</text>
	<text x="664" y="220" fill="#b35806" font-family="Verdana" font-size="12">1,N</text>
</g>

<!-- Association MODIFIER -->
<g>
	<line x1="500" y1="203" x2="365" y2="304" stroke="#8073ac" stroke-width="2"/>
	<line x1="223" y1="203" x2="365" y2="304" stroke="#8073ac" stroke-width="2"/>
	<g>
		<path d="M413 279 a14 14 90 0 1 14 14 V304 h-124 V293 a14 14 90 0 1 14 -14" fill="#b2abd2" stroke="#b2abd2" stroke-width="0"/>
		<path d="M427 304 v11 a14 14 90 0 1 -14 14 H317 a14 14 90 0 1 -14 -14 V304 H124" fill="#d8daeb" stroke="#d8daeb" stroke-width="0"/>
		<rect x="303" y="279" width="124" height="50" fill="none" rx="14" stroke="#8073ac" stroke-width="2"/>
		<line x1="303" y1="304" x2="427" y2="304" stroke="#8073ac" stroke-width="1"/>
		<text x="334" y="296.75" fill="#000000" font-family="Verdana" font-size="12">MODIFIER</text>
		<text x="310" y="321.8" fill="#000000" font-family="Verdana" font-size="12">date_modification</text>
	</g>
	<text x="441" y="224.59" fill="#b35806" font-family="Verdana" font-size="12">0,N</text>
	<text x="277" y="235.26" fill="#b35806" font-family="Verdana" font-size="12">1,1</text>
</g>

<!-- Association POSSEDER -->
<g>
	<line x1="500" y1="203" x2="500" y2="304" stroke="#8073ac" stroke-width="2"/>
	<line x1="613" y1="304" x2="500" y2="304" stroke="#8073ac" stroke-width="2"/>
	<g>
		<path d="M527 279 a14 14 90 0 1 14 14 V304 h-82 V293 a14 14 90 0 1 14 -14" fill="#b2abd2" stroke="#b2abd2" stroke-width="0"/>
		<path d="M541 304 v11 a14 14 90 0 1 -14 14 H473 a14 14 90 0 1 -14 -14 V304 H82" fill="#d8daeb" stroke="#d8daeb" stroke-width="0"/>
		<rect x="459" y="279" width="82" height="50" fill="none" rx="14" stroke="#8073ac" stroke-width="2"/>
		<line x1="459" y1="304" x2="541" y2="304" stroke="#8073ac" stroke-width="1"/>
		<text x="467" y="296.75" fill="#000000" font-family="Verdana" font-size="12">POSSEDER</text>
	</g>
	<text x="505" y="271" fill="#b35806" font-family="Verdana" font-size="12">1,4</text>
	<text x="546" y="321" fill="#b35806" font-family="Verdana" font-size="12">0,N</text>
</g>

<!-- Association EFFECTUER -->
<g>
	<line x1="500" y1="203" x2="365" y2="379" stroke="#8073ac" stroke-width="2"/>
	<line x1="223" y1="203" x2="365" y2="379" stroke="#8073ac" stroke-width="2"/>
	<g>
		<path d="M412 354 a14 14 90 0 1 14 14 V379 h-122 V368 a14 14 90 0 1 14 -14" fill="#b2abd2" stroke="#b2abd2" stroke-width="0"/>
		<path d="M426 379 v11 a14 14 90 0 1 -14 14 H318 a14 14 90 0 1 -14 -14 V379 H122" fill="#d8daeb" stroke="#d8daeb" stroke-width="0"/>
		<rect x="304" y="354" width="122" height="50" fill="none" rx="14" stroke="#8073ac" stroke-width="2"/>
		<line x1="304" y1="379" x2="426" y2="379" stroke="#8073ac" stroke-width="1"/>
		<text x="330" y="371.75" fill="#000000" font-family="Verdana" font-size="12">EFFECTUER</text>
		<text x="311" y="396.8" fill="#000000" font-family="Verdana" font-size="12">date_effectuation</text>
	</g>
	<text x="441" y="242.48" fill="#b35806" font-family="Verdana" font-size="12">0,N</text>
	<text x="244.16" y="271" fill="#b35806" font-family="Verdana" font-size="12">1,1</text>
</g>

<!-- Entity LOCAL -->
<g>
	<g>
		<rect x="9" y="9" width="142" height="25" fill="#fdb863" stroke="none" stroke-width="0" opacity="1"/>
		<rect x="9" y="34" width="142" height="93" fill="#fee0b6" stroke="none" stroke-width="0" opacity="1"/>
		<rect x="9" y="9" width="142" height="118" fill="none" stroke="#e08214" stroke-width="2" opacity="1"/>
		<line x1="9" y1="34" x2="151" y2="34" stroke="#e08214" stroke-width="1"/>
	</g>
	<text x="60" y="26.75" fill="#000000" font-family="Verdana" font-size="12">LOCAL</text>
	<text x="14" y="51.8" fill="#000000" font-family="Verdana" font-size="12">pavillon</text>
	<line x1="14" y1="54" x2="62" y2="54" stroke="#000000" stroke-width="1"/>
	<text x="14" y="68.8" fill="#000000" font-family="Verdana" font-size="12">numéro</text>
	<line x1="14" y1="71" x2="61" y2="71" stroke="#000000" stroke-width="1"/>
	<text x="14" y="85.8" fill="#000000" font-family="Verdana" font-size="12">catégorie</text>
	<text x="14" y="102.8" fill="#000000" font-family="Verdana" font-size="12">capacité</text>
	<text x="14" y="119.8" fill="#000000" font-family="Verdana" font-size="12">code_caractéristiques</text>
</g>

<!-- Entity RESERVATION -->
<g>
	<g>
		<rect x="174" y="152" width="98" height="25" fill="#fdb863" stroke="none" stroke-width="0" opacity="1"/>
		<rect x="174" y="177" width="98" height="77" fill="#fee0b6" stroke="none" stroke-width="0" opacity="1"/>
		<rect x="174" y="152" width="98" height="102" fill="none" stroke="#e08214" stroke-width="2" opacity="1"/>
		<line x1="174" y1="177" x2="272" y2="177" stroke="#e08214" stroke-width="1"/>
	</g>
	<text x="179" y="169.75" fill="#000000" font-family="Verdana" font-size="12">RÉSERVATION</text>
	<text x="179" y="194.8" fill="#000000" font-family="Verdana" font-size="12">id_réservation</text>
	<line x1="179" y1="197" x2="266" y2="197" stroke="#000000" stroke-width="1"/>
	<text x="179" y="211.8" fill="#000000" font-family="Verdana" font-size="12">date_début</text>
	<text x="179" y="228.8" fill="#000000" font-family="Verdana" font-size="12">date_fin</text>
	<text x="179" y="245.8" fill="#000000" font-family="Verdana" font-size="12">description</text>
</g>

<!-- Entity MEMBRE -->
<g>
	<g>
		<rect x="468" y="152" width="64" height="25" fill="#fdb863" stroke="none" stroke-width="0" opacity="1"/>
		<rect x="468" y="177" width="64" height="77" fill="#fee0b6" stroke="none" stroke-width="0" opacity="1"/>
		<rect x="468" y="152" width="64" height="102" fill="none" stroke="#e08214" stroke-width="2" opacity="1"/>
		<line x1="468" y1="177" x2="532" y2="177" stroke="#e08214" stroke-width="1"/>
	</g>
	<text x="474" y="169.75" fill="#000000" font-family="Verdana" font-size="12">MEMBRE</text>
	<text x="473" y="194.8" fill="#000000" font-family="Verdana" font-size="12">cip</text>
	<line x1="473" y1="197" x2="491" y2="197" stroke="#000000" stroke-width="1"/>
	<text x="473" y="211.8" fill="#000000" font-family="Verdana" font-size="12">nom</text>
	<text x="473" y="228.8" fill="#000000" font-family="Verdana" font-size="12">prénom</text>
	<text x="473" y="245.8" fill="#000000" font-family="Verdana" font-size="12">émail</text>
</g>

<!-- Entity DEPARTEMENT -->
<g>
	<g>
		<rect x="691" y="169" width="124" height="25" fill="#fdb863" stroke="none" stroke-width="0" opacity="1"/>
		<rect x="691" y="194" width="124" height="43" fill="#fee0b6" stroke="none" stroke-width="0" opacity="1"/>
		<rect x="691" y="169" width="124" height="68" fill="none" stroke="#e08214" stroke-width="2" opacity="1"/>
		<line x1="691" y1="194" x2="815" y2="194" stroke="#e08214" stroke-width="1"/>
	</g>
	<text x="708" y="186.75" fill="#000000" font-family="Verdana" font-size="12">DÉPARTEMENT</text>
	<text x="696" y="211.8" fill="#000000" font-family="Verdana" font-size="12">id_département</text>
	<line x1="696" y1="214" x2="793" y2="214" stroke="#000000" stroke-width="1"/>
	<text x="696" y="228.8" fill="#000000" font-family="Verdana" font-size="12">nom_département</text>
</g>

<!-- Entity STATUT -->
<g>
	<g>
		<rect x="573" y="270" width="80" height="25" fill="#fdb863" stroke="none" stroke-width="0" opacity="1"/>
		<rect x="573" y="295" width="80" height="43" fill="#fee0b6" stroke="none" stroke-width="0" opacity="1"/>
		<rect x="573" y="270" width="80" height="68" fill="none" stroke="#e08214" stroke-width="2" opacity="1"/>
		<line x1="573" y1="295" x2="653" y2="295" stroke="#e08214" stroke-width="1"/>
	</g>
	<text x="589" y="287.75" fill="#000000" font-family="Verdana" font-size="12">STATUT</text>
	<text x="578" y="312.8" fill="#000000" font-family="Verdana" font-size="12">id_statut</text>
	<line x1="578" y1="315" x2="633" y2="315" stroke="#000000" stroke-width="1"/>
	<text x="578" y="329.8" fill="#000000" font-family="Verdana" font-size="12">nom_statut</text>
</g>
</svg>