<?xml version="1.0" encoding="utf-8"?>
<!-- Generated by Mocodo 4.2.8 -->
<svg width="730" height="482" viewBox="0 0 730 482" xmlns="http://www.w3.org/2000/svg">
<rect x="0" y="0" width="730" height="482" fill="#f7f7f7" stroke="none" stroke-width="0"/>

<!-- Association CORRESPONDRE -->
<g>
	<line x1="358" y1="136" x2="358" y2="43" stroke="#8073ac" stroke-width="2"/>
	<line x1="217" y1="43" x2="358" y2="43" stroke="#8073ac" stroke-width="2"/>
	<g>
		<path d="M402 18 a14 14 90 0 1 14 14 V43 h-116 V32 a14 14 90 0 1 14 -14" fill="#b2abd2" stroke="#b2abd2" stroke-width="0"/>
		<path d="M416 43 v11 a14 14 90 0 1 -14 14 H314 a14 14 90 0 1 -14 -14 V43 H116" fill="#d8daeb" stroke="#d8daeb" stroke-width="0"/>
		<rect x="300" y="18" width="116" height="50" fill="none" rx="14" stroke="#8073ac" stroke-width="2"/>
		<line x1="300" y1="43" x2="416" y2="43" stroke="#8073ac" stroke-width="1"/>
		<text x="307" y="35.75" fill="#000000" font-family="Verdana" font-size="12">CORRESPONDRE</text>
	</g>
	<text x="363" y="86" fill="#b35806" font-family="Verdana" font-size="12">1,1</text>
	<text x="273" y="60" fill="#b35806" font-family="Verdana" font-size="12">0,N</text>
</g>

<!-- Association ATTRIBUER -->
<g>
	<line x1="358" y1="136" x2="217" y2="136" stroke="#8073ac" stroke-width="2"/>
	<line x1="76" y1="136" x2="217" y2="136" stroke="#8073ac" stroke-width="2"/>
	<g>
		<path d="M245 111 a14 14 90 0 1 14 14 V136 h-84 V125 a14 14 90 0 1 14 -14" fill="#b2abd2" stroke="#b2abd2" stroke-width="0"/>
		<path d="M259 136 v11 a14 14 90 0 1 -14 14 H189 a14 14 90 0 1 -14 -14 V136 H84" fill="#d8daeb" stroke="#d8daeb" stroke-width="0"/>
		<rect x="175" y="111" width="84" height="50" fill="none" rx="14" stroke="#8073ac" stroke-width="2"/>
		<line x1="175" y1="136" x2="259" y2="136" stroke="#8073ac" stroke-width="1"/>
		<text x="182" y="128.75" fill="#000000" font-family="Verdana" font-size="12">ATTRIBUER</text>
		<text x="182" y="153.8" fill="#000000" font-family="Verdana" font-size="12">effectif</text>
	</g>
	<text x="300" y="153" fill="#b35806" font-family="Verdana" font-size="12">1,N</text>
	<text x="148" y="153" fill="#b35806" font-family="Verdana" font-size="12">0,N</text>
</g>

<!-- Association RESERVER -->
<g>
	<line x1="463" y1="254" x2="463" y2="136" stroke="#8073ac" stroke-width="2"/>
	<line x1="358" y1="136" x2="463" y2="136" stroke="#8073ac" stroke-width="2"/>
	<g>
		<path d="M491 94 a14 14 90 0 1 14 14 V119 h-84 V108 a14 14 90 0 1 14 -14" fill="#b2abd2" stroke="#b2abd2" stroke-width="0"/>
		<path d="M505 119 v45 a14 14 90 0 1 -14 14 H435 a14 14 90 0 1 -14 -14 V119 H84" fill="#d8daeb" stroke="#d8daeb" stroke-width="0"/>
		<rect x="421" y="94" width="84" height="84" fill="none" rx="14" stroke="#8073ac" stroke-width="2"/>
		<line x1="421" y1="119" x2="505" y2="119" stroke="#8073ac" stroke-width="1"/>
		<text x="431" y="111.75" fill="#000000" font-family="Verdana" font-size="12">RESERVER</text>
		<text x="428" y="136.8" fill="#000000" font-family="Verdana" font-size="12">date_debut</text>
		<text x="428" y="153.8" fill="#000000" font-family="Verdana" font-size="12">date_fin</text>
		<text x="428" y="170.8" fill="#000000" font-family="Verdana" font-size="12">description</text>
	</g>
	<text x="468" y="195" fill="#b35806" font-family="Verdana" font-size="12">1,N</text>
	<text x="394" y="153" fill="#b35806" font-family="Verdana" font-size="12">1,N</text>
</g>

<!-- Association CONTENIR -->
<g>
	<line x1="358" y1="136" x2="358" y2="254" stroke="#8073ac" stroke-width="2"/>
	<line x1="217" y1="254" x2="358" y2="254" stroke="#8073ac" stroke-width="2"/>
	<g>
		<path d="M384 229 a14 14 90 0 1 14 14 V254 h-80 V243 a14 14 90 0 1 14 -14" fill="#b2abd2" stroke="#b2abd2" stroke-width="0"/>
		<path d="M398 254 v11 a14 14 90 0 1 -14 14 H332 a14 14 90 0 1 -14 -14 V254 H80" fill="#d8daeb" stroke="#d8daeb" stroke-width="0"/>
		<rect x="318" y="229" width="80" height="50" fill="none" rx="14" stroke="#8073ac" stroke-width="2"/>
		<line x1="318" y1="254" x2="398" y2="254" stroke="#8073ac" stroke-width="1"/>
		<text x="326" y="246.75" fill="#000000" font-family="Verdana" font-size="12">CONTENIR</text>
	</g>
	<text x="363" y="195" fill="#b35806" font-family="Verdana" font-size="12">1,N</text>
	<text x="279" y="271" fill="#b35806" font-family="Verdana" font-size="12">1,1</text>
</g>

<!-- Association POSSEDER -->
<g>
	<line x1="463" y1="254" x2="568" y2="254" stroke="#8073ac" stroke-width="2"/>
	<line x1="681" y1="254" x2="568" y2="254" stroke="#8073ac" stroke-width="2"/>
	<g>
		<path d="M595 229 a14 14 90 0 1 14 14 V254 h-82 V243 a14 14 90 0 1 14 -14" fill="#b2abd2" stroke="#b2abd2" stroke-width="0"/>
		<path d="M609 254 v11 a14 14 90 0 1 -14 14 H541 a14 14 90 0 1 -14 -14 V254 H82" fill="#d8daeb" stroke="#d8daeb" stroke-width="0"/>
		<rect x="527" y="229" width="82" height="50" fill="none" rx="14" stroke="#8073ac" stroke-width="2"/>
		<line x1="527" y1="254" x2="609" y2="254" stroke="#8073ac" stroke-width="1"/>
		<text x="535" y="246.75" fill="#000000" font-family="Verdana" font-size="12">POSSEDER</text>
	</g>
	<text x="500" y="271" fill="#b35806" font-family="Verdana" font-size="12">1,4</text>
	<text x="614" y="271" fill="#b35806" font-family="Verdana" font-size="12">1,N</text>
</g>

<!-- Association APPARTENIR -->
<g>
	<line x1="463" y1="254" x2="463" y2="355" stroke="#8073ac" stroke-width="2"/>
	<line x1="463" y1="439" x2="463" y2="355" stroke="#8073ac" stroke-width="2"/>
	<g>
		<path d="M495 330 a14 14 90 0 1 14 14 V355 h-92 V344 a14 14 90 0 1 14 -14" fill="#b2abd2" stroke="#b2abd2" stroke-width="0"/>
		<path d="M509 355 v11 a14 14 90 0 1 -14 14 H431 a14 14 90 0 1 -14 -14 V355 H92" fill="#d8daeb" stroke="#d8daeb" stroke-width="0"/>
		<rect x="417" y="330" width="92" height="50" fill="none" rx="14" stroke="#8073ac" stroke-width="2"/>
		<line x1="417" y1="355" x2="509" y2="355" stroke="#8073ac" stroke-width="1"/>
		<text x="424" y="347.75" fill="#000000" font-family="Verdana" font-size="12">APPARTENIR</text>
	</g>
	<text x="468" y="322" fill="#b35806" font-family="Verdana" font-size="12">1,1</text>
	<text x="468" y="397" fill="#b35806" font-family="Verdana" font-size="12">1,N</text>
</g>

<!-- Entity CATEGORIE -->
<g>
	<g>
		<rect x="166" y="9" width="102" height="25" fill="#fdb863" stroke="none" stroke-width="0" opacity="1"/>
		<rect x="166" y="34" width="102" height="43" fill="#fee0b6" stroke="none" stroke-width="0" opacity="1"/>
		<rect x="166" y="9" width="102" height="68" fill="none" stroke="#e08214" stroke-width="2" opacity="1"/>
		<line x1="166" y1="34" x2="268" y2="34" stroke="#e08214" stroke-width="1"/>
	</g>
	<text x="181" y="26.75" fill="#000000" font-family="Verdana" font-size="12">CATEGORIE</text>
	<text x="171" y="51.8" fill="#000000" font-family="Verdana" font-size="12">id_categorie</text>
	<line x1="171" y1="54" x2="246" y2="54" stroke="#000000" stroke-width="1"/>
	<text x="171" y="68.8" fill="#000000" font-family="Verdana" font-size="12">nom_categorie</text>
</g>

<!-- Entity CARACTERISTIQUE -->
<g>
	<g>
		<rect x="9" y="102" width="134" height="25" fill="#fdb863" stroke="none" stroke-width="0" opacity="1"/>
		<rect x="9" y="127" width="134" height="43" fill="#fee0b6" stroke="none" stroke-width="0" opacity="1"/>
		<rect x="9" y="102" width="134" height="68" fill="none" stroke="#e08214" stroke-width="2" opacity="1"/>
		<line x1="9" y1="127" x2="143" y2="127" stroke="#e08214" stroke-width="1"/>
	</g>
	<text x="18" y="119.75" fill="#000000" font-family="Verdana" font-size="12">CARACTÉRISTIQUE</text>
	<text x="14" y="144.8" fill="#000000" font-family="Verdana" font-size="12">id_caracteristique</text>
	<line x1="14" y1="147" x2="122" y2="147" stroke="#000000" stroke-width="1"/>
	<text x="14" y="161.8" fill="#000000" font-family="Verdana" font-size="12">nom_caracteristique</text>
</g>

<!-- Entity LOCAL -->
<g>
	<g>
		<rect x="327" y="94" width="62" height="25" fill="#fdb863" stroke="none" stroke-width="0" opacity="1"/>
		<rect x="327" y="119" width="62" height="59" fill="#fee0b6" stroke="none" stroke-width="0" opacity="1"/>
		<rect x="327" y="94" width="62" height="84" fill="none" stroke="#e08214" stroke-width="2" opacity="1"/>
		<line x1="327" y1="119" x2="389" y2="119" stroke="#e08214" stroke-width="1"/>
	</g>
	<text x="338" y="111.75" fill="#000000" font-family="Verdana" font-size="12">LOCAL</text>
	<text x="332" y="136.8" fill="#000000" font-family="Verdana" font-size="12">pavillon</text>
	<line x1="332" y1="139" x2="380" y2="139" stroke="#000000" stroke-width="1"/>
	<text x="332" y="153.8" fill="#000000" font-family="Verdana" font-size="12">numero</text>
	<line x1="332" y1="156" x2="379" y2="156" stroke="#000000" stroke-width="1"/>
	<text x="332" y="170.8" fill="#000000" font-family="Verdana" font-size="12">capacite</text>
</g>

<!-- Entity CUBICULE -->
<g>
	<g>
		<rect x="160" y="229" width="114" height="25" fill="#fdb863" stroke="none" stroke-width="0" opacity="1"/>
		<rect x="160" y="254" width="114" height="25" fill="#fee0b6" stroke="none" stroke-width="0" opacity="1"/>
		<rect x="160" y="229" width="114" height="50" fill="none" stroke="#e08214" stroke-width="2" opacity="1"/>
		<line x1="160" y1="254" x2="274" y2="254" stroke="#e08214" stroke-width="1"/>
	</g>
	<text x="186" y="246.75" fill="#000000" font-family="Verdana" font-size="12">CUBICULE</text>
	<text x="165" y="271.8" fill="#000000" font-family="Verdana" font-size="12">numero_cubicule</text>
	<line x1="165" y1="274" x2="269" y2="274" stroke="#000000" stroke-width="1"/>
</g>

<!-- Entity MEMBRE -->
<g>
	<g>
		<rect x="431" y="203" width="64" height="25" fill="#fdb863" stroke="none" stroke-width="0" opacity="1"/>
		<rect x="431" y="228" width="64" height="77" fill="#fee0b6" stroke="none" stroke-width="0" opacity="1"/>
		<rect x="431" y="203" width="64" height="102" fill="none" stroke="#e08214" stroke-width="2" opacity="1"/>
		<line x1="431" y1="228" x2="495" y2="228" stroke="#e08214" stroke-width="1"/>
	</g>
	<text x="437" y="220.75" fill="#000000" font-family="Verdana" font-size="12">MEMBRE</text>
	<text x="436" y="245.8" fill="#000000" font-family="Verdana" font-size="12">cip</text>
	<line x1="436" y1="248" x2="454" y2="248" stroke="#000000" stroke-width="1"/>
	<text x="436" y="262.8" fill="#000000" font-family="Verdana" font-size="12">nom</text>
	<text x="436" y="279.8" fill="#000000" font-family="Verdana" font-size="12">prenom</text>
	<text x="436" y="296.8" fill="#000000" font-family="Verdana" font-size="12">email</text>
</g>

<!-- Entity STATUT -->
<g>
	<g>
		<rect x="641" y="220" width="80" height="25" fill="#fdb863" stroke="none" stroke-width="0" opacity="1"/>
		<rect x="641" y="245" width="80" height="43" fill="#fee0b6" stroke="none" stroke-width="0" opacity="1"/>
		<rect x="641" y="220" width="80" height="68" fill="none" stroke="#e08214" stroke-width="2" opacity="1"/>
		<line x1="641" y1="245" x2="721" y2="245" stroke="#e08214" stroke-width="1"/>
	</g>
	<text x="657" y="237.75" fill="#000000" font-family="Verdana" font-size="12">STATUT</text>
	<text x="646" y="262.8" fill="#000000" font-family="Verdana" font-size="12">id_statut</text>
	<line x1="646" y1="265" x2="701" y2="265" stroke="#000000" stroke-width="1"/>
	<text x="646" y="279.8" fill="#000000" font-family="Verdana" font-size="12">nom_statut</text>
</g>

<!-- Entity DEPARTEMENT -->
<g>
	<g>
		<rect x="401" y="405" width="124" height="25" fill="#fdb863" stroke="none" stroke-width="0" opacity="1"/>
		<rect x="401" y="430" width="124" height="43" fill="#fee0b6" stroke="none" stroke-width="0" opacity="1"/>
		<rect x="401" y="405" width="124" height="68" fill="none" stroke="#e08214" stroke-width="2" opacity="1"/>
		<line x1="401" y1="430" x2="525" y2="430" stroke="#e08214" stroke-width="1"/>
	</g>
	<text x="418" y="422.75" fill="#000000" font-family="Verdana" font-size="12">DEPARTEMENT</text>
	<text x="406" y="447.8" fill="#000000" font-family="Verdana" font-size="12">id_departement</text>
	<line x1="406" y1="450" x2="503" y2="450" stroke="#000000" stroke-width="1"/>
	<text x="406" y="464.8" fill="#000000" font-family="Verdana" font-size="12">nom_departement</text>
</g>
</svg>