<?xml version="1.0" encoding="utf-8"?>
<!-- Generated by Mocodo 4.2.8 -->
<svg width="827" height="455" viewBox="0 0 827 455" xmlns="http://www.w3.org/2000/svg">
<rect x="0" y="0" width="827" height="455" fill="#f7f7f7" stroke="none" stroke-width="0"/>

<!-- Association CONTENIR -->
<g>
	<line x1="217" y1="210" x2="217" y2="118" stroke="#8073ac" stroke-width="2"/>
	<line x1="217" y1="34" x2="217" y2="118" stroke="#8073ac" stroke-width="2"/>
	<g>
		<path d="M243 93 a14 14 90 0 1 14 14 V118 h-80 V107 a14 14 90 0 1 14 -14" fill="#b2abd2" stroke="#b2abd2" stroke-width="0"/>
		<path d="M257 118 v11 a14 14 90 0 1 -14 14 H191 a14 14 90 0 1 -14 -14 V118 H80" fill="#d8daeb" stroke="#d8daeb" stroke-width="0"/>
		<rect x="177" y="93" width="80" height="50" fill="none" rx="14" stroke="#8073ac" stroke-width="2"/>
		<line x1="177" y1="118" x2="257" y2="118" stroke="#8073ac" stroke-width="1"/>
		<text x="185" y="110.75" fill="#000000" font-family="Verdana" font-size="12">CONTENIR</text>
	</g>
	<text x="222" y="160" fill="#b35806" font-family="Verdana" font-size="12">1,N</text>
	<text x="222" y="76" fill="#b35806" font-family="Verdana" font-size="12">1,1</text>
</g>

<!-- Association MODIFIER -->
<g>
	<line x1="601" y1="311" x2="756" y2="118" stroke="#8073ac" stroke-width="2"/>
	<line x1="459" y1="210" x2="756" y2="118" stroke="#8073ac" stroke-width="2"/>
	<g>
		<path d="M804 93 a14 14 90 0 1 14 14 V118 h-124 V107 a14 14 90 0 1 14 -14" fill="#b2abd2" stroke="#b2abd2" stroke-width="0"/>
		<path d="M818 118 v11 a14 14 90 0 1 -14 14 H708 a14 14 90 0 1 -14 -14 V118 H124" fill="#d8daeb" stroke="#d8daeb" stroke-width="0"/>
		<rect x="694" y="93" width="124" height="50" fill="none" rx="14" stroke="#8073ac" stroke-width="2"/>
		<line x1="694" y1="118" x2="818" y2="118" stroke="#8073ac" stroke-width="1"/>
		<text x="725" y="110.75" fill="#000000" font-family="Verdana" font-size="12">MODIFIER</text>
		<text x="701" y="135.8" fill="#000000" font-family="Verdana" font-size="12">date_modification</text>
	</g>
	<text x="638" y="282.17" fill="#b35806" font-family="Verdana" font-size="12">0,N</text>
	<text x="513" y="209.41" fill="#b35806" font-family="Verdana" font-size="12">0,N</text>
</g>

<!-- Association ATTRIBUER -->
<g>
	<line x1="217" y1="210" x2="76" y2="210" stroke="#8073ac" stroke-width="2"/>
	<line x1="76" y1="118" x2="76" y2="210" stroke="#8073ac" stroke-width="2"/>
	<g>
		<path d="M104 185 a14 14 90 0 1 14 14 V210 h-84 V199 a14 14 90 0 1 14 -14" fill="#b2abd2" stroke="#b2abd2" stroke-width="0"/>
		<path d="M118 210 v11 a14 14 90 0 1 -14 14 H48 a14 14 90 0 1 -14 -14 V210 H84" fill="#d8daeb" stroke="#d8daeb" stroke-width="0"/>
		<rect x="34" y="185" width="84" height="50" fill="none" rx="14" stroke="#8073ac" stroke-width="2"/>
		<line x1="34" y1="210" x2="118" y2="210" stroke="#8073ac" stroke-width="1"/>
		<text x="41" y="202.75" fill="#000000" font-family="Verdana" font-size="12">ATTRIBUER</text>
		<text x="41" y="227.8" fill="#000000" font-family="Verdana" font-size="12">effectif</text>
	</g>
	<text x="159" y="227" fill="#b35806" font-family="Verdana" font-size="12">1,N</text>
	<text x="81" y="169" fill="#b35806" font-family="Verdana" font-size="12">0,N</text>
</g>

<!-- Association CONCERNER -->
<g>
	<line x1="459" y1="210" x2="326" y2="210" stroke="#8073ac" stroke-width="2"/>
	<line x1="217" y1="210" x2="326" y2="210" stroke="#8073ac" stroke-width="2"/>
	<g>
		<path d="M358 185 a14 14 90 0 1 14 14 V210 h-92 V199 a14 14 90 0 1 14 -14" fill="#b2abd2" stroke="#b2abd2" stroke-width="0"/>
		<path d="M372 210 v11 a14 14 90 0 1 -14 14 H294 a14 14 90 0 1 -14 -14 V210 H92" fill="#d8daeb" stroke="#d8daeb" stroke-width="0"/>
		<rect x="280" y="185" width="92" height="50" fill="none" rx="14" stroke="#8073ac" stroke-width="2"/>
		<line x1="280" y1="210" x2="372" y2="210" stroke="#8073ac" stroke-width="1"/>
		<text x="288" y="202.75" fill="#000000" font-family="Verdana" font-size="12">CONCERNER</text>
	</g>
	<text x="384" y="202" fill="#b35806" font-family="Verdana" font-size="12">1,1</text>
	<text x="253" y="227" fill="#b35806" font-family="Verdana" font-size="12">0,N</text>
</g>

<!-- Association SUPPRIMER -->
<g>
	<line x1="601" y1="311" x2="601" y2="210" stroke="#8073ac" stroke-width="2"/>
	<line x1="459" y1="210" x2="601" y2="210" stroke="#8073ac" stroke-width="2"/>
	<g>
		<path d="M648 185 a14 14 90 0 1 14 14 V210 h-122 V199 a14 14 90 0 1 14 -14" fill="#b2abd2" stroke="#b2abd2" stroke-width="0"/>
		<path d="M662 210 v11 a14 14 90 0 1 -14 14 H554 a14 14 90 0 1 -14 -14 V210 H122" fill="#d8daeb" stroke="#d8daeb" stroke-width="0"/>
		<rect x="540" y="185" width="122" height="50" fill="none" rx="14" stroke="#8073ac" stroke-width="2"/>
		<line x1="540" y1="210" x2="662" y2="210" stroke="#8073ac" stroke-width="1"/>
		<text x="565" y="202.75" fill="#000000" font-family="Verdana" font-size="12">SUPPRIMER</text>
		<text x="547" y="227.8" fill="#000000" font-family="Verdana" font-size="12">date_suppression</text>
	</g>
	<text x="574" y="252" fill="#b35806" font-family="Verdana" font-size="12">0,N</text>
	<text x="513" y="227" fill="#b35806" font-family="Verdana" font-size="12">0,N</text>
</g>

<!-- Association CORRESPONDRE -->
<g>
	<line x1="217" y1="210" x2="217" y2="311" stroke="#8073ac" stroke-width="2"/>
	<line x1="76" y1="311" x2="217" y2="311" stroke="#8073ac" stroke-width="2"/>
	<g>
		<path d="M261 286 a14 14 90 0 1 14 14 V311 h-116 V300 a14 14 90 0 1 14 -14" fill="#b2abd2" stroke="#b2abd2" stroke-width="0"/>
		<path d="M275 311 v11 a14 14 90 0 1 -14 14 H173 a14 14 90 0 1 -14 -14 V311 H116" fill="#d8daeb" stroke="#d8daeb" stroke-width="0"/>
		<rect x="159" y="286" width="116" height="50" fill="none" rx="14" stroke="#8073ac" stroke-width="2"/>
		<line x1="159" y1="311" x2="275" y2="311" stroke="#8073ac" stroke-width="1"/>
		<text x="166" y="303.75" fill="#000000" font-family="Verdana" font-size="12">CORRESPONDRE</text>
	</g>
	<text x="222" y="269" fill="#b35806" font-family="Verdana" font-size="12">1,1</text>
	<text x="132" y="328" fill="#b35806" font-family="Verdana" font-size="12">0,N</text>
</g>

<!-- Association EFFECTUER -->
<g>
	<line x1="601" y1="311" x2="459" y2="311" stroke="#8073ac" stroke-width="2"/>
	<line x1="459" y1="210" x2="459" y2="311" stroke="#8073ac" stroke-width="2"/>
	<g>
		<path d="M506 286 a14 14 90 0 1 14 14 V311 h-122 V300 a14 14 90 0 1 14 -14" fill="#b2abd2" stroke="#b2abd2" stroke-width="0"/>
		<path d="M520 311 v11 a14 14 90 0 1 -14 14 H412 a14 14 90 0 1 -14 -14 V311 H122" fill="#d8daeb" stroke="#d8daeb" stroke-width="0"/>
		<rect x="398" y="286" width="122" height="50" fill="none" rx="14" stroke="#8073ac" stroke-width="2"/>
		<line x1="398" y1="311" x2="520" y2="311" stroke="#8073ac" stroke-width="1"/>
		<text x="424" y="303.75" fill="#000000" font-family="Verdana" font-size="12">EFFECTUER</text>
		<text x="405" y="328.8" fill="#000000" font-family="Verdana" font-size="12">date_effectuation</text>
	</g>
	<text x="542" y="303" fill="#b35806" font-family="Verdana" font-size="12">0,N</text>
	<text x="464" y="278" fill="#b35806" font-family="Verdana" font-size="12">1,1</text>
</g>

<!-- Association APPARTENIR -->
<g>
	<line x1="601" y1="311" x2="756" y2="311" stroke="#8073ac" stroke-width="2"/>
	<line x1="756" y1="210" x2="756" y2="311" stroke="#8073ac" stroke-width="2"/>
	<g>
		<path d="M788 286 a14 14 90 0 1 14 14 V311 h-92 V300 a14 14 90 0 1 14 -14" fill="#b2abd2" stroke="#b2abd2" stroke-width="0"/>
		<path d="M802 311 v11 a14 14 90 0 1 -14 14 H724 a14 14 90 0 1 -14 -14 V311 H92" fill="#d8daeb" stroke="#d8daeb" stroke-width="0"/>
		<rect x="710" y="286" width="92" height="50" fill="none" rx="14" stroke="#8073ac" stroke-width="2"/>
		<line x1="710" y1="311" x2="802" y2="311" stroke="#8073ac" stroke-width="1"/>
		<text x="717" y="303.75" fill="#000000" font-family="Verdana" font-size="12">APPARTENIR</text>
	</g>
	<text x="638" y="328" fill="#b35806" font-family="Verdana" font-size="12">1,1</text>
	<text x="761" y="261" fill="#b35806" font-family="Verdana" font-size="12">1,N</text>
</g>

<!-- Association CONSULTER -->
<g>
	<line x1="601" y1="311" x2="326" y2="412" stroke="#8073ac" stroke-width="2"/>
	<line x1="459" y1="210" x2="326" y2="412" stroke="#8073ac" stroke-width="2"/>
	<g>
		<path d="M373 387 a14 14 90 0 1 14 14 V412 h-122 V401 a14 14 90 0 1 14 -14" fill="#b2abd2" stroke="#b2abd2" stroke-width="0"/>
		<path d="M387 412 v11 a14 14 90 0 1 -14 14 H279 a14 14 90 0 1 -14 -14 V412 H122" fill="#d8daeb" stroke="#d8daeb" stroke-width="0"/>
		<rect x="265" y="387" width="122" height="50" fill="none" rx="14" stroke="#8073ac" stroke-width="2"/>
		<line x1="265" y1="412" x2="387" y2="412" stroke="#8073ac" stroke-width="1"/>
		<text x="289" y="404.75" fill="#000000" font-family="Verdana" font-size="12">CONSULTER</text>
		<text x="272" y="429.8" fill="#000000" font-family="Verdana" font-size="12">date_consultation</text>
	</g>
	<text x="542" y="317.62" fill="#b35806" font-family="Verdana" font-size="12">0,N</text>
	<text x="425.37" y="278" fill="#b35806" font-family="Verdana" font-size="12">0,N</text>
</g>

<!-- Association POSSEDER -->
<g>
	<line x1="601" y1="311" x2="601" y2="412" stroke="#8073ac" stroke-width="2"/>
	<line x1="459" y1="412" x2="601" y2="412" stroke="#8073ac" stroke-width="2"/>
	<g>
		<path d="M628 387 a14 14 90 0 1 14 14 V412 h-82 V401 a14 14 90 0 1 14 -14" fill="#b2abd2" stroke="#b2abd2" stroke-width="0"/>
		<path d="M642 412 v11 a14 14 90 0 1 -14 14 H574 a14 14 90 0 1 -14 -14 V412 H82" fill="#d8daeb" stroke="#d8daeb" stroke-width="0"/>
		<rect x="560" y="387" width="82" height="50" fill="none" rx="14" stroke="#8073ac" stroke-width="2"/>
		<line x1="560" y1="412" x2="642" y2="412" stroke="#8073ac" stroke-width="1"/>
		<text x="568" y="404.75" fill="#000000" font-family="Verdana" font-size="12">POSSEDER</text>
	</g>
	<text x="606" y="379" fill="#b35806" font-family="Verdana" font-size="12">1,4</text>
	<text x="504" y="429" fill="#b35806" font-family="Verdana" font-size="12">0,N</text>
</g>

<!-- Entity CUBICULE -->
<g>
	<g>
		<rect x="160" y="9" width="114" height="25" fill="#fdb863" stroke="none" stroke-width="0" opacity="1"/>
		<rect x="160" y="34" width="114" height="25" fill="#fee0b6" stroke="none" stroke-width="0" opacity="1"/>
		<rect x="160" y="9" width="114" height="50" fill="none" stroke="#e08214" stroke-width="2" opacity="1"/>
		<line x1="160" y1="34" x2="274" y2="34" stroke="#e08214" stroke-width="1"/>
	</g>
	<text x="186" y="26.75" fill="#000000" font-family="Verdana" font-size="12">CUBICULE</text>
	<text x="165" y="51.8" fill="#000000" font-family="Verdana" font-size="12">numero_cubicule</text>
	<line x1="165" y1="54" x2="269" y2="54" stroke="#000000" stroke-width="1"/>
</g>

<!-- Entity CARACTERISTIQUE -->
<g>
	<g>
		<rect x="9" y="84" width="134" height="25" fill="#fdb863" stroke="none" stroke-width="0" opacity="1"/>
		<rect x="9" y="109" width="134" height="43" fill="#fee0b6" stroke="none" stroke-width="0" opacity="1"/>
		<rect x="9" y="84" width="134" height="68" fill="none" stroke="#e08214" stroke-width="2" opacity="1"/>
		<line x1="9" y1="109" x2="143" y2="109" stroke="#e08214" stroke-width="1"/>
	</g>
	<text x="18" y="101.75" fill="#000000" font-family="Verdana" font-size="12">CARACTÉRISTIQUE</text>
	<text x="14" y="126.8" fill="#000000" font-family="Verdana" font-size="12">id_caracteristique</text>
	<line x1="14" y1="129" x2="122" y2="129" stroke="#000000" stroke-width="1"/>
	<text x="14" y="143.8" fill="#000000" font-family="Verdana" font-size="12">nom_caracteristique</text>
</g>

<!-- Entity LOCAL -->
<g>
	<g>
		<rect x="186" y="168" width="62" height="25" fill="#fdb863" stroke="none" stroke-width="0" opacity="1"/>
		<rect x="186" y="193" width="62" height="59" fill="#fee0b6" stroke="none" stroke-width="0" opacity="1"/>
		<rect x="186" y="168" width="62" height="84" fill="none" stroke="#e08214" stroke-width="2" opacity="1"/>
		<line x1="186" y1="193" x2="248" y2="193" stroke="#e08214" stroke-width="1"/>
	</g>
	<text x="197" y="185.75" fill="#000000" font-family="Verdana" font-size="12">LOCAL</text>
	<text x="191" y="210.8" fill="#000000" font-family="Verdana" font-size="12">pavillon</text>
	<line x1="191" y1="213" x2="239" y2="213" stroke="#000000" stroke-width="1"/>
	<text x="191" y="227.8" fill="#000000" font-family="Verdana" font-size="12">numero</text>
	<line x1="191" y1="230" x2="238" y2="230" stroke="#000000" stroke-width="1"/>
	<text x="191" y="244.8" fill="#000000" font-family="Verdana" font-size="12">capacite</text>
</g>

<!-- Entity RESERVATION -->
<g>
	<g>
		<rect x="410" y="159" width="98" height="25" fill="#fdb863" stroke="none" stroke-width="0" opacity="1"/>
		<rect x="410" y="184" width="98" height="77" fill="#fee0b6" stroke="none" stroke-width="0" opacity="1"/>
		<rect x="410" y="159" width="98" height="102" fill="none" stroke="#e08214" stroke-width="2" opacity="1"/>
		<line x1="410" y1="184" x2="508" y2="184" stroke="#e08214" stroke-width="1"/>
	</g>
	<text x="415" y="176.75" fill="#000000" font-family="Verdana" font-size="12">RESERVATION</text>
	<text x="415" y="201.8" fill="#000000" font-family="Verdana" font-size="12">id_reservation</text>
	<line x1="415" y1="204" x2="502" y2="204" stroke="#000000" stroke-width="1"/>
	<text x="415" y="218.8" fill="#000000" font-family="Verdana" font-size="12">date_debut</text>
	<text x="415" y="235.8" fill="#000000" font-family="Verdana" font-size="12">date_fin</text>
	<text x="415" y="252.8" fill="#000000" font-family="Verdana" font-size="12">description</text>
</g>

<!-- Entity DEPARTEMENT -->
<g>
	<g>
		<rect x="694" y="176" width="124" height="25" fill="#fdb863" stroke="none" stroke-width="0" opacity="1"/>
		<rect x="694" y="201" width="124" height="43" fill="#fee0b6" stroke="none" stroke-width="0" opacity="1"/>
		<rect x="694" y="176" width="124" height="68" fill="none" stroke="#e08214" stroke-width="2" opacity="1"/>
		<line x1="694" y1="201" x2="818" y2="201" stroke="#e08214" stroke-width="1"/>
	</g>
	<text x="711" y="193.75" fill="#000000" font-family="Verdana" font-size="12">DEPARTEMENT</text>
	<text x="699" y="218.8" fill="#000000" font-family="Verdana" font-size="12">id_departement</text>
	<line x1="699" y1="221" x2="796" y2="221" stroke="#000000" stroke-width="1"/>
	<text x="699" y="235.8" fill="#000000" font-family="Verdana" font-size="12">nom_departement</text>
</g>

<!-- Entity CATEGORIE -->
<g>
	<g>
		<rect x="25" y="277" width="102" height="25" fill="#fdb863" stroke="none" stroke-width="0" opacity="1"/>
		<rect x="25" y="302" width="102" height="43" fill="#fee0b6" stroke="none" stroke-width="0" opacity="1"/>
		<rect x="25" y="277" width="102" height="68" fill="none" stroke="#e08214" stroke-width="2" opacity="1"/>
		<line x1="25" y1="302" x2="127" y2="302" stroke="#e08214" stroke-width="1"/>
	</g>
	<text x="40" y="294.75" fill="#000000" font-family="Verdana" font-size="12">CATEGORIE</text>
	<text x="30" y="319.8" fill="#000000" font-family="Verdana" font-size="12">id_categorie</text>
	<line x1="30" y1="322" x2="105" y2="322" stroke="#000000" stroke-width="1"/>
	<text x="30" y="336.8" fill="#000000" font-family="Verdana" font-size="12">nom_categorie</text>
</g>

<!-- Entity MEMBRE -->
<g>
	<g>
		<rect x="569" y="260" width="64" height="25" fill="#fdb863" stroke="none" stroke-width="0" opacity="1"/>
		<rect x="569" y="285" width="64" height="77" fill="#fee0b6" stroke="none" stroke-width="0" opacity="1"/>
		<rect x="569" y="260" width="64" height="102" fill="none" stroke="#e08214" stroke-width="2" opacity="1"/>
		<line x1="569" y1="285" x2="633" y2="285" stroke="#e08214" stroke-width="1"/>
	</g>
	<text x="575" y="277.75" fill="#000000" font-family="Verdana" font-size="12">MEMBRE</text>
	<text x="574" y="302.8" fill="#000000" font-family="Verdana" font-size="12">cip</text>
	<line x1="574" y1="305" x2="592" y2="305" stroke="#000000" stroke-width="1"/>
	<text x="574" y="319.8" fill="#000000" font-family="Verdana" font-size="12">nom</text>
	<text x="574" y="336.8" fill="#000000" font-family="Verdana" font-size="12">prenom</text>
	<text x="574" y="353.8" fill="#000000" font-family="Verdana" font-size="12">email</text>
</g>

<!-- Entity STATUT -->
<g>
	<g>
		<rect x="419" y="378" width="80" height="25" fill="#fdb863" stroke="none" stroke-width="0" opacity="1"/>
		<rect x="419" y="403" width="80" height="43" fill="#fee0b6" stroke="none" stroke-width="0" opacity="1"/>
		<rect x="419" y="378" width="80" height="68" fill="none" stroke="#e08214" stroke-width="2" opacity="1"/>
		<line x1="419" y1="403" x2="499" y2="403" stroke="#e08214" stroke-width="1"/>
	</g>
	<text x="435" y="395.75" fill="#000000" font-family="Verdana" font-size="12">STATUT</text>
	<text x="424" y="420.8" fill="#000000" font-family="Verdana" font-size="12">id_statut</text>
	<line x1="424" y1="423" x2="479" y2="423" stroke="#000000" stroke-width="1"/>
	<text x="424" y="437.8" fill="#000000" font-family="Verdana" font-size="12">nom_statut</text>
</g>
</svg>